. 
 
http://www.torrenting.com          :     Once & For all ;)


               www . Torrenting . Com 

(((((((((((((= Enjoy No RAR releases =))))))))))))))))))))


...................................NFO:....................................

.ACDC. Live. at. River. Plate.DVDRip.XviD.AC3-SiC

Poster:
[IMG]http://i.imgur.com/KsZ8J.jpg[/IMG]

#######################################################################
Information:
#######################################################################
Title: AC/DC: Live at River Plate
Year: 2011
Runtime: mins
Votes: 133
Rating:

    * Currently 9.20/10

9.2 / 10
Country: USA
All Genres: Music
Director: David Mallet

Produced By: Rocky Oldham Dione Orrom
Music: AC/DC

#######################################################################
Cast:
#######################################################################
 Angus Young as Himself
 Malcolm Young as Himself
 Brian Johnson as Himself
 Cliff Williams as Himself
 Phil Rudd as Himself 


General:
Complete name                            : ACDC.Live.at.River.Plate.DVDRip.XviD.AC3-SiC.avi
Format                                   : AVI
Format/Info                              : Audio Video Interleave
File size                                : 1.48 GiB
Duration                                 : 1h 51mn
Overall bit rate                         : 1 888 Kbps
Writing application                      : VirtualDubMod 1.5.10.2 (build 2540/release)
Writing library                          : VirtualDubMod build 2540/release

Video
ID                                       : 0
Format                                   : MPEG-4 Visual
Format profile                           : Advanced Simple@L5
Format settings, BVOP                    : 2
Format settings, QPel                    : No
Format settings, GMC                     : No warppoints
Format settings, Matrix                  : Default (H.263)
Codec ID                                 : XVID
Codec ID/Hint                            : XviD
Duration                                 : 1h 51mn
Bit rate                                 : 1 496 Kbps
Width                                    : 720 pixels
Height                                   : 304 pixels
Display aspect ratio                     : 2.35:1
Frame rate                               : 23.976 fps
Color space                              : YUV
Chroma subsampling                       : 4:2:0
Bit depth                                : 8 bits
Scan type                                : Progressive
Compression mode                         : Lossy
Bits/(Pixel*Frame)                       : 0.285
Stream size                              : 1.17 GiB (79%)
Writing library                          : XviD 1.2.1 (UTC 2008-12-04)

Audio
ID                                       : 1
Format                                   : AC-3
Format/Info                              : Audio Coding 3
Mode extension                           : CM (complete main)
Codec ID                                 : 2000
Duration                                 : 1h 51mn
Bit rate mode                            : Constant
Bit rate                                 : 384 Kbps
Channel(s)                               : 2 channels
Channel positions                        : Front: L R
Sampling rate                            : 48.0 KHz
Bit depth                                : 16 bits
Compression mode                         : Lossy
Stream size                              : 307 MiB (20%)
Alignment                                : Split accross interleaves
Interleave, duration                     : 42 ms (1.00 video frame)
Interleave, preload duration             : 500 ms

Screenshots:
[IMG]http://i.imgur.com/15MgW.jpg[/IMG]
[IMG]http://i.imgur.com/pil4m.jpg[/IMG]
[IMG]http://i.imgur.com/2fE4Y.jpg[/IMG]
[IMG]http://i.imgur.com/Qiiai.jpg[/IMG]

Source:  ACDC.Live.at.River.Plate.DVD9

Enjoy!

Respects to T00NG0D, ELEKTRI4KA, PA, YeFsTe, MrRep and everyone in the struggle...